<?xml version="1.0" encoding="UTF-8"?>
<svg id="Layer_2" data-name="Layer 2" xmlns="http://www.w3.org/2000/svg" viewBox="0 0 439.26 439.26">
  <defs>
    <style>
      .cls-1 {
        fill: #98a2b3;
        fill-rule: evenodd;
      }
    </style>
  </defs>
  <g id="Design">
    <path class="cls-1" d="M53.54,0C23.96.01,0,23.99,0,53.57c0,29.58,23.99,53.55,53.57,53.55,29.58-.01,53.55-24,53.54-53.57C107.11,23.97,83.12-.01,53.54,0ZM10.69,153.55v285.71h85.71V153.55H10.69ZM328.86,149.97c-44.97,0-81.35,22.55-93.66,44.75h-.89v-41.17h-80.77v285.71h85.72v-137.23c0-47.89,20.54-77.06,63.63-77.06,35.48,0,50.65,33.35,50.65,71.35v142.94h85.72v-158.57c0-84.89-24.09-130.72-110.4-130.72Z"/>
  </g>
</svg>